<svg width="36" height="36" viewBox="0 0 36 36" fill="none" xmlns="http://www.w3.org/2000/svg">
<path d="M11.64 18.1275C16.6425 18.1275 20.7 14.07 20.7 9.0675C20.7 4.065 16.6425 0 11.64 0C6.63749 0 2.57999 4.0575 2.57999 9.06C2.57999 14.0625 6.63749 18.1275 11.64 18.1275ZM8.47499 12.645C8.55749 12.345 8.63999 12.0525 8.72999 11.7525C8.83499 11.4075 8.93249 11.37 9.24749 11.535C9.78749 11.8125 10.3575 11.97 10.9575 12.045C11.34 12.09 11.7225 12.0525 12.075 11.895C12.7425 11.6025 12.8475 10.83 12.285 10.365C12.09 10.2075 11.8725 10.0875 11.6475 9.99C11.0625 9.735 10.455 9.54 9.89999 9.21C9.00749 8.6775 8.43749 7.935 8.50499 6.8475C8.57999 5.6175 9.27749 4.845 10.4025 4.44C10.8675 4.2675 10.8675 4.275 10.875 3.7875V3.2925C10.8825 2.925 10.95 2.865 11.31 2.85H11.6475C12.4275 2.85 12.4275 2.85 12.4275 3.63C12.4275 4.1775 12.4275 4.185 12.975 4.2675C13.395 4.335 13.7925 4.455 14.1825 4.6275C14.4 4.725 14.475 4.875 14.415 5.1C14.3175 5.4375 14.2275 5.775 14.115 6.105C14.01 6.42 13.9125 6.465 13.6125 6.3225C13.005 6.03 12.3675 5.9025 11.6925 5.94C11.5125 5.9475 11.3475 5.97 11.1825 6.045C10.605 6.3 10.5075 6.9375 11.0025 7.335C11.25 7.5375 11.535 7.68 11.835 7.8C12.345 8.01 12.8625 8.22 13.3575 8.49C14.91 9.3525 15.33 11.3025 14.235 12.63C13.8375 13.11 13.3275 13.4325 12.72 13.5975C12.4575 13.6725 12.3375 13.8075 12.3525 14.0775C12.3675 14.3475 12.3525 14.61 12.3525 14.88C12.3525 15.12 12.2325 15.2475 11.9925 15.255C11.7075 15.2625 11.415 15.2625 11.13 15.255C10.875 15.2475 10.755 15.105 10.755 14.8575C10.755 14.6625 10.755 14.4675 10.7475 14.2725C10.74 13.845 10.7325 13.8225 10.3125 13.755C9.77999 13.6725 9.26249 13.5525 8.77499 13.3125C8.40749 13.14 8.36999 13.0425 8.47499 12.645Z" fill="white"/>
<path d="M31.965 18.885H30.9075C30.21 16.7475 28.845 14.85 27.0225 13.38C27.0225 13.3125 27.0075 13.2375 26.9925 13.17C26.61 11.8275 27.0825 10.605 27.63 9.7275C28.0125 9.1125 27.5175 8.325 26.7975 8.415C25.185 8.6175 24.075 9.21 23.31 9.8775C22.785 10.335 22.41 10.95 22.245 11.6325C21.09 16.4175 16.7775 19.98 11.64 19.98C9.1425 19.98 6.8475 19.14 5.01 17.73C4.3725 19.11 4.0275 20.6175 4.0275 22.2C4.0275 23.055 4.1325 23.8875 4.3275 24.69C4.3275 24.69 4.3275 24.705 4.335 24.7275C4.5375 25.56 4.845 26.3625 5.235 27.12C5.7525 28.2375 6.5025 29.5425 7.5375 30.6C9.03 32.1375 9.285 34.0425 9.3225 34.8675V35.2725C9.3525 35.6775 9.69 36 10.1025 36H14.8425C15.27 36 15.6225 35.655 15.6225 35.22V34.05C16.3125 34.14 17.0175 34.1925 17.73 34.1925C18.2925 34.1925 18.84 34.1625 19.3875 34.1025V35.22C19.3875 35.6475 19.7325 36 20.1675 36H24.9225C25.35 36 25.7025 35.655 25.7025 35.22V34.05C25.71 33.66 25.845 32.1075 27.315 30.78L27.4725 30.645C27.4875 30.63 27.5025 30.6225 27.5175 30.6075C29.1525 29.1525 30.36 27.3375 30.9825 25.3125H31.98C32.775 25.3125 33.42 24.6675 33.42 23.8725V20.325C33.405 19.53 32.76 18.885 31.965 18.885ZM26.0325 19.14C25.38 19.14 24.855 18.615 24.855 17.9625C24.855 17.31 25.38 16.785 26.0325 16.785C26.685 16.785 27.21 17.31 27.21 17.9625C27.21 18.615 26.685 19.14 26.0325 19.14Z" fill="white"/>
</svg>
