<svg width="36" height="36" viewBox="0 0 36 36" fill="none" xmlns="http://www.w3.org/2000/svg">
<g clip-path="url(#clip0_3_120)">
<path d="M29.9818 18.8865C29.1455 17.805 27.8834 17.0622 26.1957 16.6584C28.3449 15.5622 29.2894 13.7015 29.0301 11.0762C28.9434 10.1242 28.6803 9.29913 28.2401 8.59978C27.7997 7.90028 27.2054 7.33793 26.4549 6.91252C25.705 6.48657 24.8894 6.16232 24.01 5.93877C23.1304 5.71523 22.1205 5.55291 20.981 5.45205V0H17.6495V5.30057C17.0726 5.30057 16.1929 5.31497 15.0103 5.34384V0H11.6783V5.45205C11.2022 5.46653 10.5028 5.47388 9.57974 5.47388L4.99323 5.45205V9.00027H7.39454C8.49074 9.00027 9.13258 9.49078 9.32005 10.4714V16.6808C9.46449 16.6808 9.57974 16.6882 9.66636 16.7026H9.32005V25.3995C9.2048 26.135 8.78658 26.503 8.06533 26.503H5.66416L4.99338 30.4623H9.32043C9.59452 30.4623 9.99091 30.466 10.5104 30.4725C11.0295 30.4797 11.4188 30.4834 11.6785 30.4834V36.0002H15.011V30.5483C15.6166 30.563 16.4964 30.5701 17.6502 30.5701V36.0002H20.9818V30.4834C22.1647 30.4258 23.214 30.3182 24.1294 30.159C25.0454 29.9998 25.9218 29.7514 26.7582 29.4122C27.5944 29.0735 28.2939 28.6513 28.8563 28.1465C29.419 27.6421 29.8838 27 30.2522 26.221C30.6194 25.442 30.8541 24.5405 30.9547 23.5162C31.143 21.5119 30.8183 19.9685 29.9818 18.8865ZM15.0751 9.2376C15.1761 9.2376 15.4609 9.23396 15.9297 9.22669C16.3987 9.21926 16.7879 9.21214 17.098 9.20487C17.4082 9.19774 17.8265 9.21578 18.3531 9.25905C18.8796 9.30231 19.323 9.36013 19.6835 9.43212C20.044 9.50411 20.441 9.62316 20.8733 9.78904C21.3063 9.95476 21.6523 10.1568 21.9116 10.3947C22.1714 10.6327 22.3913 10.9357 22.5713 11.3035C22.7518 11.6713 22.842 12.0931 22.842 12.569C22.842 12.9729 22.7772 13.3408 22.6475 13.6727C22.5181 14.0044 22.3229 14.2821 22.0636 14.5057C21.8042 14.7293 21.5369 14.9242 21.2628 15.0899C20.989 15.2556 20.6389 15.3892 20.2135 15.49C19.7883 15.591 19.4169 15.6704 19.0998 15.728C18.7824 15.7857 18.3859 15.8255 17.9098 15.847C17.4337 15.8685 17.073 15.8832 16.828 15.8904C16.5827 15.8975 16.2474 15.8975 15.8218 15.8904C15.3961 15.8832 15.1476 15.8794 15.0753 15.8794V9.23753L15.0751 9.2376ZM24.1729 23.9708C24.0355 24.3027 23.8591 24.5914 23.6429 24.8367C23.4264 25.0815 23.1414 25.2981 22.7882 25.4853C22.435 25.6731 22.0922 25.8243 21.7607 25.9397C21.4288 26.0555 21.0284 26.156 20.5601 26.2428C20.0907 26.3294 19.6799 26.3903 19.3262 26.4266C18.973 26.4628 18.5513 26.4915 18.0607 26.5133C17.5705 26.5345 17.188 26.5455 16.9141 26.5455C16.64 26.5455 16.2938 26.5416 15.8755 26.5345C15.457 26.5278 15.1904 26.5242 15.0749 26.5242V19.2112C15.1902 19.2112 15.5328 19.2042 16.1026 19.1895C16.6725 19.1749 17.1374 19.1682 17.4981 19.1682C17.8586 19.1682 18.3564 19.1895 18.9913 19.2331C19.6255 19.276 20.1592 19.3407 20.5923 19.4272C21.0248 19.5139 21.4968 19.6471 22.0093 19.8276C22.5211 20.0078 22.936 20.2277 23.2534 20.4873C23.5708 20.7474 23.8375 21.0786 24.0537 21.4826C24.2705 21.8863 24.3787 22.348 24.3787 22.8674C24.3786 23.2716 24.3102 23.6388 24.1729 23.9708Z" fill="white"/>
</g>
<defs>
<clipPath id="clip0_3_120">
<rect width="36" height="36" fill="white"/>
</clipPath>
</defs>
</svg>
