<svg xmlns="http://www.w3.org/2000/svg" version="1.1" xmlns:xlink="http://www.w3.org/1999/xlink" width="512" height="512" x="0" y="0" viewBox="0 0 32 32" style="enable-background:new 0 0 512 512" xml:space="preserve" fill-rule="evenodd" class=""><g><path d="M15 20c0-.796-.316-1.559-.879-2.121A2.996 2.996 0 0 0 12 17H5c-.796 0-1.559.316-2.121.879A2.996 2.996 0 0 0 2 20v7c0 .796.316 1.559.879 2.121A2.996 2.996 0 0 0 5 30h7c.796 0 1.559-.316 2.121-.879A2.996 2.996 0 0 0 15 27zm15 0c0-.796-.316-1.559-.879-2.121A2.996 2.996 0 0 0 27 17h-7c-.796 0-1.559.316-2.121.879A2.996 2.996 0 0 0 17 20v7c0 .796.316 1.559.879 2.121A2.996 2.996 0 0 0 20 30h7c.796 0 1.559-.316 2.121-.879A2.996 2.996 0 0 0 30 27zm-4.379-5.207 4.172-4.172a3 3 0 0 0 0-4.242l-4.172-4.172a3 3 0 0 0-4.242 0l-4.172 4.172a3 3 0 0 0 0 4.242l4.172 4.172a3 3 0 0 0 4.242 0zM15 5c0-.796-.316-1.559-.879-2.121A2.996 2.996 0 0 0 12 2H5c-.796 0-1.559.316-2.121.879A2.996 2.996 0 0 0 2 5v7c0 .796.316 1.559.879 2.121A2.996 2.996 0 0 0 5 15h7c.796 0 1.559-.316 2.121-.879A2.996 2.996 0 0 0 15 12z" fill="#ffffff" opacity="1" data-original="#000000"></path></g></svg>