<svg xmlns="http://www.w3.org/2000/svg" version="1.1" xmlns:xlink="http://www.w3.org/1999/xlink" width="512" height="512" x="0" y="0" viewBox="0 0 260 260" style="enable-background:new 0 0 512 512" xml:space="preserve" class=""><g><path fill="#dde9fe" d="M118.678 187c.03 8.62-6.04 19.13-13.55 23.47l-79.09 45.66c-4.02 2.32-7.63 2.41-10.13.67.15.11.3.2.45.29l-8.94-5.21c-2.44-1.41-3.95-4.43-3.96-8.72L2.968 73c-.02-8.63 6.04-19.14 13.55-23.47l79.09-45.67c3.79-2.17 7.21-2.38 9.69-.94l8.76 5.09c2.54 1.37 4.13 4.43 4.14 8.82z" opacity="1" data-original="#dde9fe" class=""></path><path fill="#6a95d3" d="M114.238 8.109c-2.47-1.435-5.897-1.23-9.675.956L25.46 54.73c-7.507 4.335-13.57 14.839-13.55 23.46l.488 170.168c.01 4.286 1.523 7.302 3.964 8.727l-8.943-5.203c-2.44-1.416-3.954-4.432-3.964-8.718L2.967 72.996c-.02-8.63 6.043-19.135 13.55-23.47L95.612 3.863c3.788-2.177 7.205-2.382 9.684-.947z" opacity="1" data-original="#6a95d3"></path><path fill="#dde9fe" d="M104.56 9.061c7.511-4.336 13.615-.858 13.64 7.765l.482 170.173c.024 8.623-6.04 19.133-13.55 23.47l-79.097 45.666c-7.511 4.336-13.614.85-13.639-7.772L11.914 78.19c-.024-8.624 6.04-19.126 13.55-23.462z" opacity="1" data-original="#dde9fe" class=""></path><path fill="#ffffff" d="M104.846 17.504c4.825-2.785 8.758-.536 8.773 5l.458 161.42c.016 5.537-3.892 12.313-8.716 15.098l-79.097 45.666c-4.824 2.786-8.758.537-8.773-5l-.458-161.42c-.016-5.536 3.892-12.312 8.716-15.097z" opacity="1" data-original="#ffffff" class=""></path><path fill="#b0c4ff" d="M141.148 166.73c.02 8.27-5.79 18.35-12.99 22.5l-79.89 46.12c-3.69 2.13-7.03 2.29-9.4.84l-3.04-1.77c-2.34-1.36-3.79-4.25-3.8-8.36l-.46-142.34c-.02-8.28 5.79-18.35 12.99-22.5l79.88-46.12c3.63-2.09 6.91-2.29 9.28-.91l3.17 1.84c-.12-.07-.25-.14-.38-.2 2.56 1.26 4.17 4.23 4.18 8.56z" opacity="1" data-original="#b0c4ff" class=""></path><path fill="#92b2f9" d="M136.886 16.029c-2.368-1.376-5.653-1.18-9.275.917l-79.892 46.12c-7.197 4.156-13.009 14.226-12.99 22.49l.468 142.343c.01 4.109 1.46 7 3.8 8.367l-3.166-1.848c-2.34-1.357-3.79-4.249-3.8-8.357l-.468-142.343c-.018-8.274 5.794-18.344 12.99-22.5l79.883-46.12c3.631-2.087 6.907-2.283 9.284-.908z" opacity="1" data-original="#92b2f9" class=""></path><path fill="#b0c4ff" d="M127.608 16.942c7.2-4.157 13.052-.823 13.075 7.444l.463 142.347c.023 8.267-5.79 18.343-12.99 22.5L48.27 235.355c-7.2 4.157-13.051.815-13.075-7.452l-.462-142.347c-.024-8.267 5.79-18.335 12.99-22.492z" opacity="1" data-original="#b0c4ff" class=""></path><path fill="#dde9fe" d="m129.754 181.088-83.711 48.286c-2.016 1.163-4.536-.288-4.542-2.615L41.108 80.2a9.995 9.995 0 0 1 4.986-8.676l83.732-48.49c2.016-1.169 4.54.282 4.547 2.612l.382 146.757a9.995 9.995 0 0 1-5 8.684z" opacity="1" data-original="#dde9fe" class=""></path><path fill="#ffffff" d="M119.683 43.345c3.684-2.127 6.678-.42 6.69 3.812l.098 85.006c.012 4.233-2.962 9.386-6.646 11.512L56.18 180.421c-3.683 2.126-6.677.42-6.69-3.813l-.098-85.006c-.012-4.233 2.963-9.385 6.646-11.512zM100.713 166.413c4.795-2.769 8.7-.55 8.716 4.967.016 5.51-3.864 12.224-8.66 14.993l-25.618 14.79c-4.802 2.772-8.701.55-8.717-4.96-.015-5.517 3.859-12.227 8.66-15z" opacity="1" data-original="#ffffff" class=""></path><path fill="#5789dc" d="M76.676 186.09c.807-.465 1.494-.637 2.06-.515s.85.675.853 1.658l-.98.566c-.055-.444-.167-.742-.34-.896-.32-.277-.859-.198-1.621.242-.615.355-1.057.76-1.326 1.212-.267.453-.4.875-.4 1.268.001.435.159.66.474.68.207.01.675-.1 1.402-.326l1.08-.34c.522-.164.923-.21 1.208-.137.49.132.736.591.739 1.378.002.98-.305 1.86-.924 2.64a7.6 7.6 0 0 1-2.161 1.88c-.959.554-1.709.705-2.252.456-.543-.245-.81-.85-.803-1.812l.98-.566c.026.488.13.837.313 1.045.348.386.958.327 1.832-.177a5.338 5.338 0 0 0 1.069-.81c.62-.608.93-1.234.929-1.876-.002-.482-.133-.75-.396-.804-.267-.045-.683.018-1.25.197l-1.043.332c-.682.216-1.165.3-1.448.25-.491-.087-.738-.497-.74-1.231-.002-.796.235-1.586.714-2.374.477-.786 1.154-1.433 2.031-1.94zM84.371 181.63c.976-.564 1.734-.706 2.273-.425.54.279.842.778.902 1.495l-1.017.587c-.116-.504-.348-.823-.693-.957-.345-.136-.828-.024-1.45.336-.76.438-1.37 1.098-1.836 1.98-.464.881-.695 1.955-.692 3.22.003 1.035.217 1.755.64 2.155.423.403 1.051.361 1.887-.121.77-.444 1.353-1.121 1.754-2.032.21-.48.368-1.04.473-1.685l1.016-.587a7.234 7.234 0 0 1-.895 2.864c-.61 1.112-1.432 1.968-2.471 2.568-.895.517-1.646.639-2.257.366-.802-.36-1.207-1.4-1.212-3.118a8.093 8.093 0 0 1 .894-3.732c.646-1.282 1.542-2.255 2.684-2.914zM92.3 177.295l2.819 7.236-1.144.66-.788-2.2-3.045 1.758-.827 3.132-1.069.618 2.874-10.523zm-1.863 6.305 2.412-1.392-1.18-3.234zM102.154 171.606l.025 8.848-1.168.675-3.968-4.884.02 7.163-.996.575-.025-8.849 1.233-.711 3.909 4.922-.02-7.168zM111.414 70.884c.075-.043.143-.067.265-.122l.054 19.232-16.777 9.687-.002-.578c-.01-6.053-.027-12.102-.051-18.154-.001-.406.093-.594.453-.802 5.353-3.082 10.705-6.173 16.058-9.263zm-2.442 16.866c-.011-3.902-.03-7.809-.02-11.723-.001-.445-.117-.48-.49-.264-3.424 1.984-6.854 3.957-10.278 5.941-.156.09-.312.196-.482.31-.013.172-.033.316-.033.44.012 4.005.03 8.005.034 12.013-.005.402.11.437.443.245a3562.27 3562.27 0 0 1 10.828-6.267l-.002-.695M92.015 82.108l.018 6.369-2.745 1.584.01 3.279 2.75-1.589.01 3.193-2.235 1.29c-.55.317-.55.317-.542.97l.007 2.419c0 .031.014.054.035.144l2.744-1.584.009 3.169-5.536 3.196-.002-.539c-.005-1.78-.016-3.555-.008-5.35.006-.384-.081-.494-.408-.305a35.802 35.802 0 0 1-.973.58c-.466.268-.935.53-1.412.806l-.018-6.385 2.785-1.608c-.003-1.061 0-2.049-.03-3.016 0-.094-.23-.117-.36-.042-.36.191-.723.392-1.085.602-.313.18-.627.367-.94.559-.32.185-.427.14-.422-.233.025-.898.002-1.776 0-2.69l8.348-4.82zM106.746 115.569l.052-.03c.357-.19.714-.392 1.078-.602.364-.21.736-.43 1.123-.653l.01 3.536c.003.812.025 1.612 0 2.431-.011.388.101.436.384.273l.06-.036c.257-.157.516-.308.775-.458.519-.3 1.043-.592 1.581-.903.015.187.029.336.03.492.01 1.799.01 3.598.021 5.39.008.347-.073.542-.406.734-2.554 1.467-5.108 2.941-7.662 4.416-.081.047-.17.082-.285.133l-.01-3.145 2.779-1.604-.002-.562c-.008-2.833-.002-5.682-.024-8.507-.001-.455.129-.693.496-.905zM111.736 93.347l.018 6.338-2.75 1.588-.01-3.185-2.764 1.596-.01-3.153 5.516-3.184zM109.065 111.01c.863-.498 1.705-.985 2.547-1.455.068-.04.19.046.191.132.016.944.019 1.896.022 2.888l-2.751 1.588-.01-3.153zM103.34 98.194l.019 6.408 5.61-3.24.007 2.186c.003 1.054.003 1.054.892.54l1.889-1.09.009 3.169-2.194 1.266c-.591.342-.591.342-.582 1.009l.007 2.537c-.938.54-1.82 1.05-2.765 1.596l-.009-3.2-2.792 1.612-.009-3.224-.543.314-2.303 1.327c-.767.443-1.535.888-2.302 1.34-.381.22-.503.16-.491-.273.025-.874.002-1.713 0-2.634l2.805-1.62-.019-6.423 2.772-1.6zM70.07 101.203l.03-.016c.846-.48 1.69-.967 2.541-1.458l2.567-1.483.018 6.369-5.516 3.184-.041-.195c-.006-1.873-.004-3.758-.023-5.624l.001-.071c.007-.254.062-.417.215-.558.056-.051.125-.1.209-.148z" opacity="1" data-original="#5789dc" class=""></path><path fill="#5789dc" d="M80.352 88.818c.122-.07.251-.13.428-.224l.054 19.248-16.757 9.675-.001-.398c-.018-6.12-.035-12.231-.059-18.346-.001-.399.087-.582.454-.794 5.29-3.047 10.582-6.102 15.88-9.161zm-2.27 17.44-.037-12.887c-.13.059-.211.09-.293.138-3.532 2.031-7.057 4.074-10.583 6.094-.373.216-.373.45-.372.746.017 3.376.026 6.756.036 10.127l.006 2.272 11.242-6.49" opacity="1" data-original="#5789dc" class=""></path><path fill="#5789dc" d="M56.927 93.586c5.108-2.933 10.215-5.882 15.324-8.831l.489-.282c.003 1.123.013 2.173-.005 3.238 0 .102-.142.317-.243.43a.501.501 0 0 1-.119.092c-.072.041-.149.07-.221.113l-12.668 7.313.02 7.322c.008 2.474.008 4.952.028 7.418.001.364-.066.548-.381.73l-.052.029c-.342.185-.686.38-1.032.58-.52.3-1.048.613-1.59.926-.007-.207-.028-.367-.029-.547-.016-5.869-.026-11.742-.056-17.604-.001-.476.12-.687.535-.927zM64.144 133.747l16.743-9.667.055 19.248-16.744 9.667-.054-19.248zm14.057 7.49c-.012-3.99-.03-7.974-.028-11.97 0-.445-.164-.374-.463-.202-1.432.83-2.864 1.66-4.296 2.486a2073.62 2073.62 0 0 1-6.076 3.495c-.373.216-.448.415-.447.805.025 3.95.036 7.907.034 11.872.001.437.11.483.49.264 1.699-.988 3.399-1.972 5.098-2.953 1.7-.982 3.4-1.961 5.098-2.941l.57-.33c.007-.222.02-.379.02-.527" opacity="1" data-original="#5789dc" class=""></path><path fill="#5789dc" d="m75.315 133.77.018 6.339-5.536 3.196-.018-6.338 5.536-3.196zM59.185 145.84c.382-.22.448-.058.449.385-.01 3.743.007 7.462.018 11.185l.008 2.872.002.61 13.252-7.652.01 3.465-16.295 9.408-.053-18.716c.149-.094.299-.204.455-.294.238-.138.482-.279.727-.412l.443-.255a20.467 20.467 0 0 0 .984-.596zM86.527 124.045l.018 6.346-2.724 1.573-.018-6.346 2.724-1.573zM85.473 105.257l1-.576.008 3.16-1.257.73c-.415.24-.828.475-1.242.698-.082.047-.232-.108-.232-.233-.03-.796-.032-1.6-.014-2.424.006-.12.155-.418.243-.476a82.25 82.25 0 0 1 1.494-.88zM75.688 114.112c1.29-.737 2.581-1.48 3.872-2.225 1.29-.746 2.581-1.493 3.872-2.238.074-.043.142-.066.265-.121l.018 6.4 2.778-1.604.018 6.431-.838.485a66.36 66.36 0 0 1-1.662.935c-.081.047-.224-.12-.231-.257-.024-.893-.013-1.807-.015-2.782l-2.779 1.604c-.007-.254-.021-.441-.022-.629-.005-1.787-.016-3.563-.008-5.35 0-.35-.085-.436-.39-.26-.363.22-.7.418-1.044.616-.456.263-.921.527-1.407.807l.01 3.177-2.752 1.588c-.014-.11-.041-.218-.042-.343-.005-1.85-.003-3.696-.015-5.542-.001-.304.04-.5.372-.692zM116.454 128.078c.13.082.253.168.382.25.845.489 1.697.974 2.542 1.463-.129.114-.258.266-.387.34-5.149 2.981-10.297 5.954-15.446 8.927l-.4.2-.008-2.474c-.003-1.007-.003-1.007.88-1.517 4.15-2.404 8.294-4.796 12.437-7.189zM89.267 106.32l.009 3.145c-.408.235-.816.475-1.222.71-.407.234-.813.465-1.217.682-.095.055-.259-.069-.266-.19-.023-.902-.019-1.826-.022-2.779l2.718-1.568z" opacity="1" data-original="#5789dc" class=""></path><path fill="#5789dc" d="m95.002 115.963 8.375-4.836.002.554.023 8.11v.148c-.018.761-.018.761-.67 1.138l-4.347 2.51-.605.349.01 3.262-2.8 1.616c.003.874-.021 1.74.022 2.568.026.47-.105.688-.465.896a23.127 23.127 0 0 0-1.205.685c-.264.153-.522.302-.78.443-.285.164-.374.335-.366.641.016.734.01 1.48.006 2.225 0 .18-.012.359-.019.566-.163.102-.292.192-.414.262l-2.981 1.72a735.43 735.43 0 0 0-4.47 2.598c-.387.223-.51.17-.505-.295.023-1.749.004-3.466 0-5.198l-.003-.61 2.751-1.587.01 3.145 2.825-1.632-.009-3.176c.503-.29.978-.561 1.447-.832l.7-.407.224-.13.145-.082c.4-.231.317-.25.32-1.008.006-.683-.01-1.354.002-2.033.012-.318-.077-.386-.342-.233-.288.172-.551.325-.815.478-.53.305-1.065.608-1.622.93-.015-.219-.042-.406-.043-.61l-.024-15.637c-.002-.858-.005-1.717-.034-2.56-.008-.336.087-.512.365-.673.367-.203.714-.403 1.06-.603l.686-.4c.115-.066.23-.132.347-.196.29-.168.373-.335.365-.641-.016-.797.002-1.62-.007-2.42 0-.234.033-.418.27-.555l5.272-3.043.018 6.4-5.584 3.224.004 1.155c-.005.581.01 1.151-.016 1.744-.012.336.081.369.339.22.37-.225.707-.422 1.047-.618.454-.263.916-.524 1.394-.8l.009 3.161-2.724 1.573c-.013.203-.034.34-.033.465.005 1.865.017 3.719.01 5.592 0 .348.074.443.365.275a51.05 51.05 0 0 1 2.115-1.223c.325-.186.38-.368.379-.68-.012-1.76-.017-3.524-.022-5.288l-.002-.647zm5.634 2.633c-.001-.655.003-1.268-.005-1.88-.002-.883-.002-.883-.777-.435l-1.623.937a.983.983 0 0 0-.447.774 97.2 97.2 0 0 0 .014 2.462c.006.098.157.191.245.14.42-.228.84-.468 1.27-.716l.876-.507a.984.984 0 0 0 .447-.775" opacity="1" data-original="#5789dc" class=""></path><path fill="#5789dc" d="M103.422 124.572c-.025.741-.01 1.46 0 2.173.007.254-.044.417-.284.555-.28.16-.537.31-.788.455l-.416.244c-.31.179-.618.348-.923.497a1.657 1.657 0 0 0-.094.05c-.294.17-.333.34-.325.685.03.882.018 1.795.021 2.732l-5.516 3.184-.009-3.145 2.731-1.577-.009-3.223 2.517-1.451a428.177 428.177 0 0 0 2.569-1.493c.377-.219.538-.173.526.314zM97.81 127.186l-.02.028v-.016l.02-.012zM106.066 80.468l.018 6.346-5.502 3.177-.018-6.346 5.502-3.177zM119.262 57.652l.053 18.701-3.009 1.737-.043-15.196-13.286 7.67-.01-3.504 16.295-9.408zM69.663 117.638l.007 2.544c.002.656.002.656.56.342l2.22-1.282.01 3.16-1.93 1.114c-.849.49-.849.49-.846 1.443.002.71-.003 1.424 0 2.127l-.035.137-2.716 1.568c-.003-.92-.026-1.799-.001-2.704.012-.393-.096-.446-.41-.264l-.033.019c-.31.191-.62.374-.933.555-.469.27-.944.537-1.438.822l-.018-6.37 5.563-3.211zM119.4 111.117c.007.191.028.351.029.523.016 5.815.033 11.63.043 17.456 0 .211-.06.465-.094.695-.845-.489-1.697-.974-2.542-1.464-.13-.081-.252-.167-.382-.249-.014-.265-.042-.53-.043-.803l-.039-13.886-.001-.523 3.029-1.749z" opacity="1" data-original="#5789dc" class=""></path><path fill="#5789dc" d="m97.79 127.214.02-.028v.016l-.02.012zM75.265 120.861l.009 3.114-2.71 1.565-.01-3.114 2.71-1.565z" opacity="1" data-original="#5789dc" class=""></path><path fill="#f7b2b2" d="M206.842 238.87v10.918l-6.932 4.697-19.222-1.806-1.59-6.001h4.625c4.042.381 7.699-.337 10.984-2.115.449-.243.734-.708.753-1.219l.186-4.973 7.588-1.301z" opacity="1" data-original="#f7b2b2"></path><path fill="#fc6c85" d="M183.723 246.678c-2.442-.298-4.697-.404-6.364.09a2.437 2.437 0 0 0-1.583 1.473c-.893 2.375-.102 4.192 1.73 5.664 1.592 1.28 3.575 1.978 5.616 2.08l4.167.206c.826.041 1.653.01 2.476-.075 2.867-.296 5.538-.242 7.811.515.463.155.937.279 1.42.355 2.554.406 4.901.627 6.566.244a2.442 2.442 0 0 0 1.867-2.682l-.587-4.76c-6.09 1.41-13.187 1.857-20.915 1.698-2.774-.117-4.595-.867-4.607-2.818.037-1.155 1.062-1.674 2.403-1.99z" opacity="1" data-original="#fc6c85"></path><path fill="#f95070" d="M207.344 255.532a2.425 2.425 0 0 1-1.785 1.701c-1.663.384-4.01.16-6.561-.243a10.199 10.199 0 0 1-1.42-.355c-2.271-.766-4.945-.813-7.814-.523-.822.093-1.645.121-2.476.075l-4.169-.206c-2.037-.093-4.019-.794-5.617-2.075-1.831-1.476-2.616-3.29-1.729-5.663.169-.44.458-.823.832-1.094-.776 2.28.019 4.038 1.794 5.468 1.599 1.28 3.58 1.98 5.618 2.084l4.168.205c.822.038 1.654.01 2.476-.075 2.87-.299 5.533-.243 7.814.515.458.158.934.28 1.42.355 2.552.402 4.898.626 6.561.243.327-.075.626-.215.888-.412z" opacity="1" data-original="#f95070"></path><path fill="#f7b2b2" d="m246.766 218.658 4.305 7.284-4.113 18.282-5.57 2.202 1.156-4.298c.652-1.339.86-2.975.793-4.797a6.68 6.68 0 0 0-.916-3.106l-4.519-7.762.957-9.482 6.72.434z" opacity="1" data-original="#f7b2b2"></path><path fill="#285294" d="M235.063 128.291c1.115 10.865-.217 33.975-1.478 56.73a3.424 3.424 0 0 0 .743 2.318c5.943 7.485 10.091 17.817 12.616 30.725a.802.802 0 0 1-.633.935c-3.94.819-6.563 3.277-8.1 7.093a.795.795 0 0 1-1.393.149c-3.489-5.115-16.263-24.06-19.396-31.806-1.83-4.527-4.24-19.07-4.24-19.07v-28.478l10.935-19.655z" opacity="1" data-original="#285294"></path><path fill="#263966" d="M246.943 218.064a.801.801 0 0 1-.636.935 11.11 11.11 0 0 0-2.887 1.019c-1.617-1.954-3.178-3.954-4.73-5.944-1.121-1.44-2.299-3-2.44-4.823-.186-2.402 1.281-5.336-.532-6.916-.598-.514-1.402-.7-2.037-1.15-.654-.457-1.094-1.158-1.514-1.831-2.29-3.701-4.608-7.486-5.617-11.71-.271-1.122-.44-2.272-.794-3.375-.3-.925-.73-1.86-.608-2.822.225-1.71 2.084-2.776 2.57-4.43.608-2.094-1.158-4.168-1.093-6.346.046-1.449.888-2.738 1.15-4.168.373-2.056-.515-4.131-.58-6.225-.112-3.486 2.056-6.729 1.972-10.215-.047-2.084-.907-4.168-.43-6.196.44-1.87 1.804-3.309 1.832-5.3.028-2.149-1.187-3.915-.664-6.14.449-1.925 1.673-3.486 3.337-4.318l1.822.178c1.113 10.87-.215 33.982-1.476 56.73a3.398 3.398 0 0 0 .738 2.318c5.944 7.486 10.094 17.823 12.617 30.73z" opacity="1" data-original="#263966"></path><path fill="#f95070" d="m257.033 229.049-2.82 8.605a7.853 7.853 0 0 0-.391 2.36l-.03 2.787a7.843 7.843 0 0 1-3.397 6.382c-2.51 1.723-5.276 2.486-7.559 2.218l1.19-2.462 2.493-3.198 1.138-14.037s4.119-3.685 4.281-3.74c.163-.053 3.875.245 3.875.245z" opacity="1" data-original="#f95070"></path><path fill="#fc6c85" d="M242.544 242.128c-2.84.308-5.11 1.36-6.57 3.466-.657.948-.68 2.218-.001 3.15.958 1.317 2.782 2.142 5.278 2.586 1.72.306 3.519-.136 4.808-1.315.065-.06.128-.12.19-.182.938-.939 1.447-2.227 1.482-3.554.154-5.746.89-10.733 2.674-14.358 1.555-2.164 3.648-3.337 6.628-2.872-1.552-1.773-3.179-3.038-4.89-3.741-1.113-.457-2.365-.438-3.435.112-1.176.603-2 1.496-2.333 2.788-.07.275-.124.736-.129 1.02l-.209 11.703c-.006.35-.046.7-.146 1.035-.613 2.043-2.692 2.913-3.347.162z" opacity="1" data-original="#fc6c85"></path><path fill="#353437" d="M145.93 56.402v22.523l11.544-4.535a.94.94 0 0 0 .596-.875V50.622a.923.923 0 0 0-1.342-.823l-9.812 4.994c-.605.308-.986.93-.986 1.609z" opacity="1" data-original="#353437" class=""></path><path fill="#ffffff" d="M146.865 56.402c0-.33.182-.627.476-.777l9.81-4.992-.016 22.882-10.27 4.038z" opacity="1" data-original="#ffffff" class=""></path><path fill="#285294" d="m226.129 136.234-2.445-5.39-29.38 1.942c-2.978 15.48-3.126 36.689-1.837 60.204.603 11.005 2.637 44.008 2.637 44.008 0 4.215 12.848 4.215 12.848 0 2.546-15.004 4.074-29.099 2.385-40.32a9.8 9.8 0 0 1-.003-2.963l5.966-38.44c.238-1.53 1.267-2.8 2.687-3.417 5-2.169 7.755-6.94 7.142-15.624z" opacity="1" data-original="#285294"></path><path fill="#263966" d="M218.99 151.858c-1.421.616-2.45 1.887-2.692 3.42l-5.963 38.44a9.829 9.829 0 0 0 0 2.963c1.691 11.215.159 25.309-2.383 40.318 0 2.066-3.075 3.113-6.225 3.16-.542-1.14-1-2.337-1.448-3.524-.3-.776-.599-1.589-.533-2.42.056-.851.495-1.627.747-2.45.898-2.831-.373-6.037.636-8.84.729-2.029 2.598-3.73 2.477-5.88-.131-2.298-2.561-4.168-2.169-6.439.28-1.645 1.944-2.673 2.673-4.177 1.225-2.477-.336-5.43-.018-8.178.186-1.56.98-3.037.972-4.608-.019-2.196-1.59-4.177-1.477-6.364.121-2.468 2.309-4.365 2.87-6.767.429-1.86-.15-3.822.149-5.7.467-2.889 2.953-5.403 2.542-8.3-.271-1.972-1.888-3.654-1.813-5.654.112-2.71 3.234-4.393 3.86-7.038.243-1.047.075-2.15.29-3.205.579-2.832 3.57-4.328 6.018-5.87 3.776-2.374 4.169-4.682 2.683-8.374-.963-2.383-.627-5.037 2.439-5.093.467-.01.897.018 1.29.084l2.215 4.87c.616 8.682-2.14 13.457-7.14 15.626z" opacity="1" data-original="#263966"></path><path fill="#f7b2b2" d="M232.5 80.55c5.69.624 8.345 8.154 11.2 18.427 0 0 5.652 14.963 3.258 19.511-2.142 4.072-16.156 7.913-16.156 7.913l-1.12-11.31 4.414-2.006a1.083 1.083 0 0 0 .458-1.579l-7.546-11.517z" opacity="1" data-original="#f7b2b2"></path><path fill="#eaa7a7" d="M246.962 118.492c-2.15 4.066-16.16 7.907-16.16 7.907l-.504-5.056c.56-.206 1.159-.365 1.738-.486 1.85-.393 3.804-.617 5.393-1.645 1.486-.963 2.476-2.542 3.87-3.645.504-.411 1.093-.785 1.317-1.392.15-.412.093-.87.047-1.309-.188-1.635-.393-3.308-1.103-4.794-.28-.59-.645-1.15-.767-1.785-.14-.664-.01-1.356-.046-2.028-.122-1.935-1.608-3.673-1.393-5.599.056-.551.252-1.112.103-1.645-.234-.86-1.243-1.243-1.767-1.972-.541-.747-.504-1.757-.738-2.654-.299-1.13-1.037-2.093-1.757-3.019-1.019-1.327-2.047-2.644-3.075-3.972-.252-.327-.505-.663-.7-1.028l1.083-3.822c5.683.626 8.347 8.159 11.197 18.43 0 0 5.654 14.963 3.262 19.514z" opacity="1" data-original="#eaa7a7"></path><path fill="#f1f3f2" d="m234.823 126.37-3.257-8.068a6.286 6.286 0 0 1-.037-4.619c5.227-13.503 6.832-25.189.97-33.132-4.426-2.663-15.915.299-24.91 1.313a6.969 6.969 0 0 0-5.117 3.19l-9.138 14.43c-1.003 3.525-.089 6.212 2.314 8.248.693.588 1.06 1.473.925 2.372l-2.823 18.645c-.38 2.83.846 5.675 3.239 7.234 8.291 5.402 28.76 3.2 35.92-3.793 1.163-1.132 1.935-2.427 2.161-3.947.094-.632-.008-1.28-.247-1.872z" opacity="1" data-original="#f1f3f2"></path><path fill="#d4d6d8" d="M234.821 126.371c.243.608.346 1.271.243 1.916-.233 1.505-1 2.785-2.159 3.907-7.159 6.99-27.626 9.187-35.916 3.785-2.206-1.43-3.411-3.963-3.3-6.561 1.113.27 2.197.72 3.225 1.234.953.467 1.916 1 2.981 1.112 1.15.121 2.309-.262 3.477-.243 2.234.046 4.645 1.551 6.524.355.336-.215.635-.505 1.018-.589.393-.084.786.075 1.168.206 3.225 1.084 6.739.355 10.057-.383l5.121-1.15c.785-.168 1.626-.374 2.206-.944 1.262-1.234.626-3.374-.309-4.87-.925-1.504-2.121-3.13-1.728-4.85.159-.682.57-1.299.747-1.981.552-2.103-1.159-4.28-.729-6.42.168-.805.626-1.524.795-2.319.224-1.046-.057-2.13.065-3.187.187-1.729 1.393-3.159 2.374-4.598.99-1.44 1.813-3.27 1.15-4.888-.28-.682-.804-1.261-.982-1.972-.458-1.822 1.45-3.654.888-5.448-.766-2.44-3.346-3.178-1.524-6.131.561-.907 1.337-1.533 2.244-1.823.019 0 .028.01.046.019 5.85 7.944 4.253 19.626-.972 33.122a6.35 6.35 0 0 0 .038 4.636z" opacity="1" data-original="#d4d6d8"></path><path fill="#f7b2b2" d="m204.23 82.735-28.414 7.167a5.537 5.537 0 0 1-3.706-.33c-4.445-2.056-8.6-4.924-12.461-8.616a5.499 5.499 0 0 1-1.524-2.644l-2.229-8.914a1.07 1.07 0 0 0-2.088.059s.3 4.989-1.013 5.313c-2.72.67-6.979-8.767-6.979-8.767-.6-.755-1.817-.349-1.843.616l-.273 9.877a7.136 7.136 0 0 0 2.003 5.16c5.392 5.574 20.092 19.369 27.253 21.368 6.287 1.755 22.387-2.59 27.812-4.158a5.077 5.077 0 0 0 2.944-2.264c2.493-4.158 4.167-8.448 2.571-12.792a1.728 1.728 0 0 0-2.052-1.075z" opacity="1" data-original="#f7b2b2"></path><path fill="#eaa7a7" d="M205.652 92.847c-.523 1.262-1.196 2.514-1.944 3.757a5.07 5.07 0 0 1-2.943 2.262c-5.42 1.57-21.524 5.916-27.805 4.159-7.168-2-21.87-15.795-27.262-21.374a7.173 7.173 0 0 1-2-5.16l.271-9.869c.01-.233.084-.439.206-.598.27.168.514.383.71.626.73.87 1 2.028 1.075 3.16.196 3.12-.823 6.71 1.234 9.065.878 1.019 2.196 1.589 2.98 2.673.44.598.73 1.364 1.384 1.72.43.224.953.224 1.402.401 1.56.627 1.7 2.982 3.168 3.804.505.271 1.094.337 1.599.617 1.26.72 1.476 2.589 2.747 3.3.561.308 1.234.336 1.813.616 1.467.7 1.813 2.748 3.197 3.617.869.542 1.981.514 2.934.906 1.608.664 2.598 2.477 4.29 2.926 1.729.448 3.58-.72 5.309-.253.691.187 1.308.617 2.009.71 1.467.188 2.72-1.13 4.196-1.242.654-.056 1.318.14 1.963.028 1.178-.187 1.972-1.28 3.037-1.804 1.458-.73 3.196-.318 4.832-.383 2.122-.094 4.112-1.019 6.047-1.916 1.776-.823 3.617-1.626 5.551-1.748z" opacity="1" data-original="#eaa7a7"></path><path fill="#f7b2b2" d="M208.121 52.866c-3.195 10.8-3.401 19.273-.747 25.519 1.29 3.255 5.633 3.513 9.16 4.572l7.859-11.805-6.936-18.41z" opacity="1" data-original="#f7b2b2"></path><path fill="#353437" d="M206.915 87.552c-.182.925.325 1.838 1.193 2.133 15.213 5.173 30.62 7.049 29.961-10.273l-1.023-16.964c-.046-3.716-.583-6.976-1.82-9.585a7.163 7.163 0 0 0-.78-1.266c-5.727-7.513-14.906-8.788-24.019-3.095-1.671 1.044-2.858 2.831-2.997 4.827-.128 1.841.233 3.932.911 6.184.493 1.998.622 4.788.571 7.971a30.645 30.645 0 0 1-.787 6.395l-3.108 12.053 4.362-11.678c-.98 5.085-1.799 9.934-2.464 13.298z" opacity="1" data-original="#353437" class=""></path><path fill="#29282b" d="M226.78 93.243c4.25-1.652 6.852-5.546 6.571-12.882l-1.019-16.96c-.052-3.718-.587-6.977-1.82-9.589a7.306 7.306 0 0 0-.783-1.269c-3.591-4.706-8.527-6.962-13.959-6.595 7.241-2.4 14.07-.39 18.675 5.649.301.396.567.817.783 1.269 1.235 2.604 1.77 5.863 1.822 9.582l1.018 16.966c.373 9.76-4.364 13.423-11.289 13.83z" opacity="1" data-original="#29282b"></path><path fill="#5789dc" d="m154.735 57.56.03-.013.007 2.233-1.948 1.125v-.067l-.006-2.109c0-.047.01-.068.052-.093.622-.357 1.243-.716 1.865-1.075zm-.284 1.96c-.001-.454-.003-.907-.002-1.362 0-.052-.014-.056-.057-.03-.398.23-.796.459-1.193.69-.019.01-.037.022-.056.035-.002.02-.004.037-.004.051l.004 1.395c0 .047.013.05.051.029a817.433 817.433 0 0 1 1.257-.728v-.08M152.482 58.864l.002.74c-.105.06-.21.12-.318.184v.38l.32-.184.001.37-.26.15c-.063.037-.063.037-.062.113v.28c0 .005.002.007.005.018l.318-.184.001.368-.643.37v-.062c0-.206-.002-.413 0-.621 0-.045-.01-.057-.048-.035a4.164 4.164 0 0 1-.113.067l-.164.093-.002-.74.323-.188c0-.123 0-.237-.003-.35 0-.01-.027-.013-.042-.005a4.042 4.042 0 0 0-.235.135c-.037.022-.05.016-.05-.027.004-.104.001-.206 0-.312l.97-.56zM154.193 62.75a4.29 4.29 0 0 0 .131-.073l.13-.077.002.41c0 .095.002.188 0 .283-.002.045.011.05.044.032a4.668 4.668 0 0 1 .097-.057l.184-.105.003.057c.001.209.001.418.003.626 0 .04-.009.063-.048.085l-.89.513-.032.015-.001-.365.322-.186v-.066c-.001-.329 0-.66-.003-.987 0-.053.015-.08.058-.106zM154.772 60.17l.002.735c-.104.06-.206.12-.32.184v-.37l-.321.186-.001-.366.64-.37zM154.462 62.22l.296-.169c.008-.004.022.006.022.016.002.11.002.22.002.335l-.319.184-.001-.366zM153.797 60.732l.002.744.652-.376v.254c.001.122.001.122.104.062l.22-.126v.368l-.254.147c-.069.04-.069.04-.068.117l.001.295-.32.185-.002-.372-.324.187-.001-.374-.063.037-.268.154-.267.155c-.044.026-.058.019-.057-.031.003-.102 0-.2 0-.306l.326-.188-.002-.746.321-.186zM149.934 61.081a49.396 49.396 0 0 0 .298-.171l.299-.172.002.74c-.214.123-.426.245-.64.37l-.006-.023c0-.218 0-.437-.002-.653v-.009c0-.03.007-.048.025-.064a.136.136 0 0 1 .024-.018z" opacity="1" data-original="#5789dc" class=""></path><path fill="#5789dc" d="m151.128 59.643.05-.026.006 2.235-1.946 1.124v-.047l-.007-2.13c0-.046.01-.067.053-.092l1.844-1.064zm-.264 2.025-.004-1.496c-.015.007-.024.01-.034.016l-1.229.708c-.043.025-.043.052-.043.086l.004 1.176v.264l1.306-.754" opacity="1" data-original="#5789dc" class=""></path><path fill="#5789dc" d="M148.408 60.197c.593-.34 1.186-.683 1.78-1.026l.056-.032c0 .13.002.252 0 .376 0 .012-.017.037-.029.05a.058.058 0 0 1-.014.01l-.025.013-1.471.85.002.85c.001.287.001.575.003.861 0 .042-.007.064-.044.085a4.934 4.934 0 0 0-.126.07l-.184.108c-.001-.024-.004-.042-.004-.063-.002-.682-.003-1.364-.006-2.044 0-.056.014-.08.062-.108zM149.246 64.86l1.944-1.122.006 2.235-1.944 1.122-.006-2.235zm1.632.87c-.001-.463-.003-.926-.003-1.39 0-.052-.02-.043-.054-.023a346.686 346.686 0 0 1-1.204.694c-.044.025-.052.048-.052.094.003.458.004.918.004 1.378 0 .05.013.056.057.03l.592-.342.592-.342.066-.038.002-.061" opacity="1" data-original="#5789dc" class=""></path><path fill="#5789dc" d="m150.543 64.863.002.736-.643.371-.002-.736.643-.37zM148.67 66.265c.044-.026.052-.007.052.044l.002 1.299.001.334v.07l1.54-.888v.402l-1.892 1.093-.006-2.174.053-.034.084-.048.052-.03a2.372 2.372 0 0 0 .114-.068zM151.845 63.734l.002.737-.316.182-.002-.737.316-.182zM151.723 61.552l.116-.067v.367l-.145.085a5.803 5.803 0 0 1-.145.081c-.01.005-.027-.013-.027-.027a4.726 4.726 0 0 1-.001-.282c0-.014.018-.048.028-.055l.174-.102zM150.586 62.58l.45-.258.45-.26c.008-.005.016-.008.03-.014l.002.743.323-.186.002.747-.097.056a7.698 7.698 0 0 1-.193.109c-.01.005-.026-.014-.027-.03-.003-.104-.001-.21-.002-.323l-.322.186-.003-.073c0-.208-.002-.414 0-.621-.001-.04-.01-.05-.046-.03a6.584 6.584 0 0 1-.121.071l-.164.094.001.369-.32.184c0-.013-.004-.025-.004-.04 0-.215 0-.429-.002-.643 0-.036.005-.058.043-.08zM155.32 64.202l.044.029.296.17c-.015.013-.03.03-.045.04l-1.794 1.036a2.757 2.757 0 0 1-.047.023v-.287c0-.117 0-.117.102-.176.482-.28.963-.557 1.444-.835zM152.163 61.676l.001.365-.142.082a5.535 5.535 0 0 1-.141.08c-.011.006-.03-.009-.03-.023-.004-.104-.003-.212-.003-.322l.315-.182z" opacity="1" data-original="#5789dc" class=""></path><path fill="#5789dc" d="m152.829 62.795.973-.561v.064l.002.942v.017c-.002.088-.002.088-.077.132l-.505.291-.07.041v.379l-.324.187c0 .102-.003.203.002.299.003.054-.012.08-.054.104a2.67 2.67 0 0 0-.14.08l-.09.05c-.033.02-.044.04-.043.075.002.085.001.172 0 .258.001.021 0 .042-.001.066l-.048.03-.347.2-.519.302c-.045.026-.059.02-.058-.034.002-.203 0-.403 0-.604v-.07c.108-.063.21-.123.319-.185l.001.365.328-.19v-.368l.167-.097a11.043 11.043 0 0 0 .107-.062l.017-.01c.047-.026.037-.028.037-.117v-.236c.002-.037-.008-.044-.04-.027a7.52 7.52 0 0 1-.094.056l-.188.108c-.002-.026-.005-.047-.005-.07l-.003-1.817c0-.1 0-.2-.004-.297 0-.039.01-.06.043-.078a8.39 8.39 0 0 0 .123-.07l.08-.047.04-.022c.033-.02.043-.04.042-.075-.002-.092 0-.188 0-.28 0-.028.003-.05.03-.065l.613-.354.002.744-.649.374v.134c0 .068.002.134-.001.203-.001.039.01.042.04.025l.12-.072.163-.093v.368l-.316.182-.003.054c0 .217.002.432 0 .65 0 .04.01.05.043.031a5.947 5.947 0 0 1 .246-.142c.038-.021.044-.042.044-.079-.002-.204-.002-.409-.003-.614v-.075zm.654.306v-.218c0-.103 0-.103-.09-.05l-.19.108a.114.114 0 0 0-.05.09v.286c.001.011.019.022.03.016a6.65 6.65 0 0 0 .147-.083l.101-.059a.114.114 0 0 0 .052-.09" opacity="1" data-original="#5789dc" class=""></path><path fill="#5789dc" d="M153.807 63.795c-.003.086-.001.17 0 .252 0 .03-.005.049-.033.065l-.092.053a4.122 4.122 0 0 1-.166.091c-.034.02-.039.04-.038.08.004.102.002.208.003.317l-.64.37-.002-.365.317-.183V64.1l.291-.168a49.438 49.438 0 0 0 .299-.174c.043-.025.062-.02.06.037zM153.155 64.098l-.002.004V64.1zM154.114 58.674l.002.737-.639.368-.002-.736.639-.37zM155.646 56.024l.006 2.172-.35.202c0-.586-.003-1.17-.004-1.765l-1.543.89-.001-.406 1.892-1.093zM149.887 62.99v.295c0 .076 0 .076.065.04l.258-.149.001.367-.224.13c-.098.056-.098.056-.098.167v.247l-.004.016-.315.182c0-.107-.003-.209 0-.314.001-.046-.012-.052-.048-.03a4.24 4.24 0 0 1-.112.067l-.167.094-.002-.74.646-.372zM155.662 62.233c0 .022.003.04.003.06l.005 2.027c0 .025-.007.054-.01.081l-.296-.17-.044-.029c-.002-.03-.005-.062-.005-.093l-.005-1.613v-.06l.352-.203zM153.153 64.102l.002-.004v.002zM150.537 63.364l.001.362-.314.181-.001-.361.314-.182z" opacity="1" data-original="#5789dc" class=""></path></g></svg>