<svg width="354" height="354" viewBox="0 0 354 354" fill="none" xmlns="http://www.w3.org/2000/svg">
<rect width="354" height="354" rx="18.3103" fill="white"/>
<path d="M39.6723 95.3601C42.1004 95.3601 44.429 94.3956 46.1459 92.6786C47.8629 90.9617 48.8274 88.6331 48.8274 86.205V48.8274H86.205C88.6331 48.8274 90.9617 47.8629 92.6786 46.1459C94.3956 44.429 95.3601 42.1004 95.3601 39.6723C95.3601 37.2442 94.3956 34.9155 92.6786 33.1986C90.9617 31.4816 88.6331 30.5171 86.205 30.5171H39.6723C37.2442 30.5171 34.9155 31.4816 33.1986 33.1986C31.4816 34.9155 30.5171 37.2442 30.5171 39.6723V86.205C30.5171 88.6331 31.4816 90.9617 33.1986 92.6786C34.9155 94.3956 37.2442 95.3601 39.6723 95.3601ZM314.327 30.5171H267.795C265.367 30.5171 263.038 31.4816 261.321 33.1986C259.604 34.9155 258.64 37.2442 258.64 39.6723C258.64 42.1004 259.604 44.429 261.321 46.1459C263.038 47.8629 265.367 48.8274 267.795 48.8274H305.172V86.205C305.172 88.6331 306.137 90.9617 307.854 92.6786C309.571 94.3956 311.899 95.3601 314.327 95.3601C316.756 95.3601 319.084 94.3956 320.801 92.6786C322.518 90.9617 323.483 88.6331 323.483 86.205V39.6723C323.483 37.2442 322.518 34.9155 320.801 33.1986C319.084 31.4816 316.756 30.5171 314.327 30.5171ZM86.205 305.172H48.8274V267.795C48.8274 265.367 47.8629 263.038 46.1459 261.321C44.429 259.604 42.1004 258.64 39.6723 258.64C37.2442 258.64 34.9155 259.604 33.1986 261.321C31.4816 263.038 30.5171 265.367 30.5171 267.795V314.327C30.5171 316.756 31.4816 319.084 33.1986 320.801C34.9155 322.518 37.2442 323.483 39.6723 323.483H86.205C88.6331 323.483 90.9617 322.518 92.6786 320.801C94.3956 319.084 95.3601 316.756 95.3601 314.327C95.3601 311.899 94.3956 309.571 92.6786 307.854C90.9617 306.137 88.6331 305.172 86.205 305.172ZM314.327 258.64C311.899 258.64 309.571 259.604 307.854 261.321C306.137 263.038 305.172 265.367 305.172 267.795V305.172H267.795C265.367 305.172 263.038 306.137 261.321 307.854C259.604 309.571 258.64 311.899 258.64 314.327C258.64 316.756 259.604 319.084 261.321 320.801C263.038 322.518 265.367 323.483 267.795 323.483H314.327C316.756 323.483 319.084 322.518 320.801 320.801C322.518 319.084 323.483 316.756 323.483 314.327V267.795C323.483 265.367 322.518 263.038 320.801 261.321C319.084 259.604 316.756 258.64 314.327 258.64ZM153.343 77.8188H86.205C83.7769 77.8188 81.4482 78.7834 79.7313 80.5003C78.0143 82.2172 77.0498 84.5459 77.0498 86.974V154.112C77.0498 156.54 78.0143 158.869 79.7313 160.586C81.4482 162.303 83.7769 163.267 86.205 163.267H153.343C155.771 163.267 158.1 162.303 159.817 160.586C161.533 158.869 162.498 156.54 162.498 154.112V86.974C162.498 84.5459 161.533 82.2172 159.817 80.5003C158.1 78.7834 155.771 77.8188 153.343 77.8188ZM144.188 144.957H95.3601V96.1292H144.188V144.957ZM153.343 191.502H86.205C83.7769 191.502 81.4482 192.466 79.7313 194.183C78.0143 195.9 77.0498 198.229 77.0498 200.657V267.795C77.0498 270.223 78.0143 272.552 79.7313 274.268C81.4482 275.985 83.7769 276.95 86.205 276.95H153.343C155.771 276.95 158.1 275.985 159.817 274.268C161.533 272.552 162.498 270.223 162.498 267.795V200.657C162.498 198.229 161.533 195.9 159.817 194.183C158.1 192.466 155.771 191.502 153.343 191.502ZM144.188 258.64H95.3601V209.812H144.188V258.64ZM200.657 163.267H267.795C270.223 163.267 272.552 162.303 274.268 160.586C275.985 158.869 276.95 156.54 276.95 154.112V86.974C276.95 84.5459 275.985 82.2172 274.268 80.5003C272.552 78.7834 270.223 77.8188 267.795 77.8188H200.657C198.229 77.8188 195.9 78.7834 194.183 80.5003C192.466 82.2172 191.502 84.5459 191.502 86.974V154.112C191.502 156.54 192.466 158.869 194.183 160.586C195.9 162.303 198.229 163.267 200.657 163.267ZM209.812 96.1292H258.64V144.957H209.812V96.1292ZM200.657 228.104C203.085 228.104 205.414 227.139 207.131 225.423C208.847 223.706 209.812 221.377 209.812 218.949V209.812H225.84C228.268 209.812 230.596 208.847 232.313 207.131C234.03 205.414 234.995 203.085 234.995 200.657C234.995 198.229 234.03 195.9 232.313 194.183C230.596 192.466 228.268 191.502 225.84 191.502H200.657C198.229 191.502 195.9 192.466 194.183 194.183C192.466 195.9 191.502 198.229 191.502 200.657V218.943C191.502 221.371 192.466 223.699 194.183 225.416C195.9 227.133 198.229 228.104 200.657 228.104ZM258.64 267.795C258.64 270.223 259.604 272.552 261.321 274.268C263.038 275.985 265.367 276.95 267.795 276.95C270.223 276.95 272.552 275.985 274.268 274.268C275.985 272.552 276.95 270.223 276.95 267.795V234.226C276.95 231.798 275.985 229.469 274.268 227.752C272.552 226.035 270.223 225.071 267.795 225.071H234.226C231.798 225.071 229.469 226.035 227.752 227.752C226.035 229.469 225.071 231.798 225.071 234.226C225.071 236.654 226.035 238.983 227.752 240.699C229.469 242.416 231.798 243.381 234.226 243.381H258.64V267.795ZM219.736 258.64H200.657C198.229 258.64 195.9 259.604 194.183 261.321C192.466 263.038 191.502 265.367 191.502 267.795C191.502 270.223 192.466 272.552 194.183 274.268C195.9 275.985 198.229 276.95 200.657 276.95H219.736C222.164 276.95 224.493 275.985 226.21 274.268C227.927 272.552 228.891 270.223 228.891 267.795C228.891 265.367 227.927 263.038 226.21 261.321C224.493 259.604 222.164 258.64 219.736 258.64ZM267.795 175.682C265.367 175.682 263.038 176.646 261.321 178.363C259.604 180.08 258.64 182.409 258.64 184.837V200.657C258.64 203.085 259.604 205.414 261.321 207.131C263.038 208.847 265.367 209.812 267.795 209.812C270.223 209.812 272.552 208.847 274.268 207.131C275.985 205.414 276.95 203.085 276.95 200.657V184.831C276.95 182.402 275.985 180.074 274.268 178.357C272.552 176.64 270.223 175.682 267.795 175.682ZM190.794 238.95C189.945 237.041 188.472 235.478 186.616 234.519C184.761 233.561 182.634 233.263 180.586 233.675C178.538 234.087 176.692 235.185 175.352 236.788C174.013 238.39 173.259 240.402 173.216 242.49C173.187 243.866 173.468 245.23 174.038 246.483C174.608 247.736 175.452 248.844 176.507 249.727C177.563 250.61 178.804 251.244 180.137 251.583C181.471 251.922 182.864 251.957 184.213 251.685C185.562 251.413 186.833 250.842 187.931 250.013C189.03 249.184 189.928 248.119 190.56 246.897C191.192 245.674 191.541 244.325 191.581 242.95C191.622 241.574 191.352 240.207 190.794 238.95ZM190.794 181.333C190.263 180.108 189.469 179.015 188.47 178.129C187.47 177.244 186.288 176.59 185.008 176.211C183.727 175.833 182.38 175.74 181.059 175.939C179.739 176.138 178.479 176.625 177.367 177.365C176.255 178.104 175.32 179.079 174.626 180.219C173.932 181.36 173.497 182.639 173.351 183.966C173.205 185.294 173.353 186.637 173.783 187.901C174.213 189.165 174.915 190.319 175.84 191.282C177.322 192.825 179.299 193.798 181.426 194.032C183.553 194.265 185.694 193.744 187.476 192.558C189.257 191.373 190.565 189.6 191.172 187.548C191.778 185.496 191.644 183.296 190.794 181.333Z" fill="black"/>
</svg>
