<svg xmlns="http://www.w3.org/2000/svg" version="1.1" xmlns:xlink="http://www.w3.org/1999/xlink" width="512" height="512" x="0" y="0" viewBox="0 0 24 24" style="enable-background:new 0 0 512 512" xml:space="preserve" class=""><g><path d="M9 7.25a6.75 6.75 0 0 0-6 9.86l-.75 3.74a.75.75 0 0 0 .74.9.92.92 0 0 0 .28-.05l3.39-1.36a6.85 6.85 0 0 0 2.34.41 6.75 6.75 0 0 0 0-13.5zm-3 7.5a.75.75 0 1 1 .75-.75.76.76 0 0 1-.75.75zm3 0a.75.75 0 1 1 .75-.75.76.76 0 0 1-.75.75zm3 0a.75.75 0 1 1 .75-.75.76.76 0 0 1-.75.75zm9-2.64.75 3.74a.75.75 0 0 1-.74.9.92.92 0 0 1-.28-.05l-3.39-1.36-.21.07a7.32 7.32 0 0 0 .12-1.41 8.26 8.26 0 0 0-8.14-8.25A6.67 6.67 0 0 1 15 2.25 6.76 6.76 0 0 1 21.75 9a6.68 6.68 0 0 1-.75 3.11z" fill="#ffffff" opacity="1" data-original="#000000" class=""></path></g></svg>