<svg xmlns="http://www.w3.org/2000/svg" version="1.1" xmlns:xlink="http://www.w3.org/1999/xlink" width="512" height="512" x="0" y="0" viewBox="0 0 542.119 542.119" style="enable-background:new 0 0 512 512" xml:space="preserve" class=""><g><path d="M24.642 197.134C9.857 197.134 0 187.277 0 172.492V73.925C0 32.034 32.034 0 73.925 0h98.567c14.785 0 24.642 9.857 24.642 24.642s-9.857 24.642-24.642 24.642H73.925c-14.785 0-24.642 9.857-24.642 24.642v98.567c.001 14.784-9.856 24.641-24.641 24.641zM517.477 197.134c-14.785 0-24.642-9.857-24.642-24.642V73.925c0-14.785-9.857-24.642-24.642-24.642h-98.567c-14.785 0-24.642-9.857-24.642-24.642S354.841 0 369.626 0h98.567c41.891 0 73.925 32.034 73.925 73.925v98.567c.001 14.785-9.856 24.642-24.641 24.642zM172.492 542.119H73.925C32.034 542.119 0 510.085 0 468.194v-98.567c0-14.785 9.857-24.642 24.642-24.642s24.642 9.857 24.642 24.642v98.567c0 14.785 9.857 24.642 24.642 24.642h98.567c14.785 0 24.642 9.857 24.642 24.642-.001 14.784-9.858 24.641-24.643 24.641zM468.194 542.119h-98.567c-14.785 0-24.642-9.857-24.642-24.642s9.857-24.642 24.642-24.642h98.567c14.785 0 24.642-9.857 24.642-24.642v-98.567c0-14.785 9.857-24.642 24.642-24.642s24.642 9.857 24.642 24.642v98.567c-.001 41.892-32.035 73.926-73.926 73.926z" fill="#ffffff" opacity="1" data-original="#000000" class=""></path><path d="M221.776 246.418h-98.567c-14.785 0-24.642-9.857-24.642-24.642v-98.567c0-14.785 9.857-24.642 24.642-24.642h98.567c14.785 0 24.642 9.857 24.642 24.642v98.567c0 14.785-9.857 24.642-24.642 24.642zm-73.925-49.284h49.284V147.85h-49.284zM221.776 443.552h-98.567c-14.785 0-24.642-9.857-24.642-24.642v-98.567c0-14.785 9.857-24.642 24.642-24.642h98.567c14.785 0 24.642 9.857 24.642 24.642v98.567c0 14.785-9.857 24.642-24.642 24.642zm-73.925-49.284h49.284v-49.284h-49.284zM418.91 246.418h-98.567c-14.785 0-24.642-9.857-24.642-24.642v-98.567c0-14.785 9.857-24.642 24.642-24.642h98.567c14.785 0 24.642 9.857 24.642 24.642v98.567c0 14.785-9.857 24.642-24.642 24.642zm-73.925-49.284h49.284V147.85h-49.284zM320.343 369.626c-14.785 0-24.642-9.857-24.642-24.642v-24.642c0-14.785 9.857-24.642 24.642-24.642s24.642 9.857 24.642 24.642v24.642c0 14.786-9.857 24.642-24.642 24.642zM418.91 344.985h-24.642c-14.785 0-24.642-9.857-24.642-24.642s9.857-24.642 24.642-24.642h24.642c14.785 0 24.642 9.857 24.642 24.642s-9.857 24.642-24.642 24.642zM418.91 443.552h-73.925c-14.785 0-24.642-9.857-24.642-24.642s9.857-24.642 24.642-24.642h73.925c14.785 0 24.642 9.857 24.642 24.642s-9.857 24.642-24.642 24.642z" fill="#ffffff" opacity="1" data-original="#000000" class=""></path></g></svg>