<svg width="20" height="20" viewBox="0 0 20 20" fill="none" xmlns="http://www.w3.org/2000/svg">
<g clip-path="url(#clip0_3_144)">
<path d="M19.8105 18.9119L14.6468 13.8308C15.999 12.3616 16.8298 10.4187 16.8298 8.28068C16.8292 3.7071 13.062 0 8.4147 0C3.76736 0 0.000228882 3.7071 0.000228882 8.28068C0.000228882 12.8543 3.76736 16.5614 8.4147 16.5614C10.4227 16.5614 12.2643 15.8668 13.711 14.7122L18.8947 19.8134C19.1472 20.0622 19.5573 20.0622 19.8099 19.8134C19.8699 19.7547 19.9177 19.6846 19.9503 19.6072C19.9829 19.5299 19.9998 19.4467 19.9998 19.3628C19.9999 19.2788 19.9832 19.1957 19.9506 19.1182C19.9181 19.0408 19.8705 18.9707 19.8105 18.9119ZM8.4147 15.2873C4.48254 15.2873 1.29491 12.1504 1.29491 8.28068C1.29491 4.41101 4.48254 1.27403 8.4147 1.27403C12.3469 1.27403 15.5345 4.41101 15.5345 8.28068C15.5345 12.1504 12.3469 15.2873 8.4147 15.2873Z" fill="white"/>
</g>
<defs>
<clipPath id="clip0_3_144">
<rect width="20" height="20" fill="white"/>
</clipPath>
</defs>
</svg>
